HIERARCHY
ROOT Hips
{
  OFFSET 365.14 88.179 197.519
  CHANNELS 6 Xposition Yposition Zposition Zrotation Xrotation Yrotation
  JOINT RightUpLeg
  {
    OFFSET -9.25084 -1.53971 -0.0324706
    CHANNELS 3 Zrotation Xrotation Yrotation
    JOINT RightLeg
    {
      OFFSET 0.0147984 -41.8767 0.0743683
      CHANNELS 3 Zrotation Xrotation Yrotation
      JOINT RightFoot
      {
        OFFSET 0.58129 -42.7665 -0.0966173
        CHANNELS 3 Zrotation Xrotation Yrotation
        End Site
        {
          OFFSET 0 -7.69 17.5
        }
      }
    }
  }
  JOINT LeftUpLeg
  {
    OFFSET 9.27183 -1.63567 0.0208533
    CHANNELS 3 Zrotation Xrotation Yrotation
    JOINT LeftLeg
    {
      OFFSET 0.0380064 -41.894 -0.0332375
      CHANNELS 3 Zrotation Xrotation Yrotation
      JOINT LeftFoot
      {
        OFFSET -0.00137207 -40.7578 0.276477
        CHANNELS 3 Zrotation Xrotation Yrotation
        End Site
        {
          OFFSET 0 -7.69 17.5
        }
      }
    }
  }
  JOINT Spine
  {
    OFFSET 0.0273715 14.2953 0.0132618
    CHANNELS 3 Zrotation Xrotation Yrotation
    JOINT Spine1
    {
      OFFSET 0.0356242 9.71545 0.0178671
      CHANNELS 3 Zrotation Xrotation Yrotation
      JOINT Spine2
      {
        OFFSET 0.0275401 10.1205 0.00234803
        CHANNELS 3 Zrotation Xrotation Yrotation
        JOINT Spine3
        {
          OFFSET 0.0388833 9.71499 0.00573168
          CHANNELS 3 Zrotation Xrotation Yrotation
          JOINT Neck
          {
            OFFSET 0.0812761 10.3796 0.11061
            CHANNELS 3 Zrotation Xrotation Yrotation
            JOINT Head
            {
              OFFSET 0.0694951 9.4737 0.0873993
              CHANNELS 3 Zrotation Xrotation Yrotation
              End Site
              {
                OFFSET 0 15.95 0
              }
            }
          }
          JOINT RightShoulder
          {
            OFFSET -3.16911 6.92878 0.0176909
            CHANNELS 3 Zrotation Xrotation Yrotation
            JOINT RightArm
            {
              OFFSET -12.7939 0.0472484 0.0511932
              CHANNELS 3 Zrotation Xrotation Yrotation
              JOINT RightForeArm
              {
                OFFSET -26.5086 -0.00989181 0.0576382
                CHANNELS 3 Zrotation Xrotation Yrotation
                JOINT RightHand
                {
                  OFFSET -26.0357 0.339815 -0.212656
                  CHANNELS 3 Zrotation Xrotation Yrotation
                  JOINT RightHandThumb1
                  {
                    OFFSET -2.48905 0.190105 3.12053
                    CHANNELS 3 Zrotation Xrotation Yrotation
                    JOINT RightHandThumb2
                    {
                      OFFSET -3.68274 0 0
                      CHANNELS 3 Zrotation Xrotation Yrotation
                      JOINT RightHandThumb3
                      {
                        OFFSET -2.55832 0 0
                        CHANNELS 3 Zrotation Xrotation Yrotation
                        End Site
                        {
                          OFFSET -2.194 0 0
                        }
                      }
                    }
                  }
                  JOINT RightInHandIndex
                  {
                    OFFSET -3.22368 0.508421 1.97842
                    CHANNELS 3 Zrotation Xrotation Yrotation
                    JOINT RightHandIndex1
                    {
                      OFFSET -5.21684 -0.091368 0.999158
                      CHANNELS 3 Zrotation Xrotation Yrotation
                      JOINT RightHandIndex2
                      {
                        OFFSET -3.61937 0 0
                        CHANNELS 3 Zrotation Xrotation Yrotation
                        JOINT RightHandIndex3
                        {
                          OFFSET -2.0521 0 0
                          CHANNELS 3 Zrotation Xrotation Yrotation
                          End Site
                          {
                            OFFSET -1.805 0 0
                          }
                        }
                      }
                    }
                  }
                  JOINT RightInHandMiddle
                  {
                    OFFSET -3.38211 0.517263 0.756737
                    CHANNELS 3 Zrotation Xrotation Yrotation
                    JOINT RightHandMiddle1
                    {
                      OFFSET -5.17411 -0.084 0.313895
                      CHANNELS 3 Zrotation Xrotation Yrotation
                      JOINT RightHandMiddle2
                      {
                        OFFSET -3.94947 0 0
                        CHANNELS 3 Zrotation Xrotation Yrotation
                        JOINT RightHandMiddle3
                        {
                          OFFSET -2.47579 0 0
                          CHANNELS 3 Zrotation Xrotation Yrotation
                          End Site
                          {
                            OFFSET -1.975 0 0
                          }
                        }
                      }
                    }
                  }
                  JOINT RightInHandRing
                  {
                    OFFSET -3.36516 0.537895 -0.128947
                    CHANNELS 3 Zrotation Xrotation Yrotation
                    JOINT RightHandRing1
                    {
                      OFFSET -4.63474 -0.022105 -0.478947
                      CHANNELS 3 Zrotation Xrotation Yrotation
                      JOINT RightHandRing2
                      {
                        OFFSET -3.44238 0 0
                        CHANNELS 3 Zrotation Xrotation Yrotation
                        JOINT RightHandRing3
                        {
                          OFFSET -2.3881 0 0
                          CHANNELS 3 Zrotation Xrotation Yrotation
                          End Site
                          {
                            OFFSET -1.857 0 0
                          }
                        }
                      }
                    }
                  }
                  JOINT RightInHandPinky
                  {
                    OFFSET -3.16105 0.469368 -1.20179
                    CHANNELS 3 Zrotation Xrotation Yrotation
                    JOINT RightHandPinky1
                    {
                      OFFSET -4.14105 -0.022105 -1.09053
                      CHANNELS 3 Zrotation Xrotation Yrotation
                      JOINT RightHandPinky2
                      {
                        OFFSET -2.75653 0 0
                        CHANNELS 3 Zrotation Xrotation Yrotation
                        JOINT RightHandPinky3
                        {
                          OFFSET -1.74189 0 0
                          CHANNELS 3 Zrotation Xrotation Yrotation
                          End Site
                          {
                            OFFSET -1.645 0 0
                          }
                        }
                      }
                    }
                  }
                }
              }
            }
          }
          JOINT LeftShoulder
          {
            OFFSET 3.24184 6.89832 -0.0228965
            CHANNELS 3 Zrotation Xrotation Yrotation
            JOINT LeftArm
            {
              OFFSET 12.8376 -0.0155948 -0.0448787
              CHANNELS 3 Zrotation Xrotation Yrotation
              JOINT LeftForeArm
              {
                OFFSET 26.5019 -0.0237061 -0.00609661
                CHANNELS 3 Zrotation Xrotation Yrotation
                JOINT LeftHand
                {
                  OFFSET 25.9931 -0.0767526 0.00928659
                  CHANNELS 3 Zrotation Xrotation Yrotation
                  JOINT LeftHandThumb1
                  {
                    OFFSET 2.48905 0.190105 3.12053
                    CHANNELS 3 Zrotation Xrotation Yrotation
                    JOINT LeftHandThumb2
                    {
                      OFFSET 3.68274 0 0
                      CHANNELS 3 Zrotation Xrotation Yrotation
                      JOINT LeftHandThumb3
                      {
                        OFFSET 2.55832 0 0
                        CHANNELS 3 Zrotation Xrotation Yrotation
                        End Site
                        {
                          OFFSET 2.194 0 0
                        }
                      }
                    }
                  }
                  JOINT LeftInHandIndex
                  {
                    OFFSET 3.22368 0.508421 1.97842
                    CHANNELS 3 Zrotation Xrotation Yrotation
                    JOINT LeftHandIndex1
                    {
                      OFFSET 5.21684 -0.091368 0.999158
                      CHANNELS 3 Zrotation Xrotation Yrotation
                      JOINT LeftHandIndex2
                      {
                        OFFSET 3.61937 0 0
                        CHANNELS 3 Zrotation Xrotation Yrotation
                        JOINT LeftHandIndex3
                        {
                          OFFSET 2.0521 0 0
                          CHANNELS 3 Zrotation Xrotation Yrotation
                          End Site
                          {
                            OFFSET 1.805 0 0
                          }
                        }
                      }
                    }
                  }
                  JOINT LeftInHandMiddle
                  {
                    OFFSET 3.38211 0.517263 0.756737
                    CHANNELS 3 Zrotation Xrotation Yrotation
                    JOINT LeftHandMiddle1
                    {
                      OFFSET 5.17411 -0.084 0.313895
                      CHANNELS 3 Zrotation Xrotation Yrotation
                      JOINT LeftHandMiddle2
                      {
                        OFFSET 3.94947 0 0
                        CHANNELS 3 Zrotation Xrotation Yrotation
                        JOINT LeftHandMiddle3
                        {
                          OFFSET 2.47579 0 0
                          CHANNELS 3 Zrotation Xrotation Yrotation
                          End Site
                          {
                            OFFSET 1.975 0 0
                          }
                        }
                      }
                    }
                  }
                  JOINT LeftInHandRing
                  {
                    OFFSET 3.36516 0.537895 -0.128947
                    CHANNELS 3 Zrotation Xrotation Yrotation
                    JOINT LeftHandRing1
                    {
                      OFFSET 4.63474 -0.022105 -0.478947
                      CHANNELS 3 Zrotation Xrotation Yrotation
                      JOINT LeftHandRing2
                      {
                        OFFSET 3.44238 0 0
                        CHANNELS 3 Zrotation Xrotation Yrotation
                        JOINT LeftHandRing3
                        {
                          OFFSET 2.3881 0 0
                          CHANNELS 3 Zrotation Xrotation Yrotation
                          End Site
                          {
                            OFFSET 1.857 0 0
                          }
                        }
                      }
                    }
                  }
                  JOINT LeftInHandPinky
                  {
                    OFFSET 3.16105 0.469368 -1.20179
                    CHANNELS 3 Zrotation Xrotation Yrotation
                    JOINT LeftHandPinky1
                    {
                      OFFSET 4.14105 -0.022105 -1.09053
                      CHANNELS 3 Zrotation Xrotation Yrotation
                      JOINT LeftHandPinky2
                      {
                        OFFSET 2.75653 0 0
                        CHANNELS 3 Zrotation Xrotation Yrotation
                        JOINT LeftHandPinky3
                        {
                          OFFSET 1.74189 0 0
                          CHANNELS 3 Zrotation Xrotation Yrotation
                          End Site
                          {
                            OFFSET 1.645 0 0
                          }
                        }
                      }
                    }
                  }
                }
              }
            }
          }
        }
      }
    }
  }
}
MOTION
Frames: 3
Frame Time: 0.00833333
1.259713972446717435e+03 8.788489053241464433e+01 2.135304419162474687e+02 1.546034894428315454e+01 -3.068624003318669580e-01 -1.159708813616676508e+02 7.511751064633556574e+00 -4.161446078016971484e+01 1.676881385479036979e+01 -2.721963698111590890e+00 4.151798851051589523e+00 -3.931605710730873504e+00 1.749121087007412356e+01 2.003073711870131035e+01 4.033764833146003781e+01 1.780817606381055995e+01 -2.085041564846899576e+01 1.478270483400969049e+01 -1.646170222633795177e+01 3.524391576550330285e+01 2.537451962901149471e+01 -2.972835000578847975e+00 -2.445116797226934935e+01 6.318470619495084595e-01 4.005811639096283905e+00 9.063814545048057170e+00 3.853615706197611512e+00 1.050346026157938040e+00 2.047946876208068812e+00 1.143534410415553371e+00 1.729157100944572978e+00 3.230629154457685281e+00 1.962729483142324316e+00 -1.311493187602278621e+00 -4.218557651338870063e-01 1.508455645131823841e+00 -2.387361806864699343e+00 -2.288336861359260510e+00 4.631100006683345427e+00 -2.406852900391051620e+01 -3.242790611262691414e+00 2.718997597456857207e+01 4.012642107567296890e+00 -1.839994266113740284e+00 5.487220174534437334e+00 9.099283476158774420e+01 -4.334762554708331805e+01 4.952745230268071452e+01 6.630930215355805046e+01 1.401063852190627568e+00 8.876775379782601760e+01 1.841818789776564103e+01 -1.936254336152800803e+01 1.481205298926321667e+01 2.818400000000000105e+01 1.072940000000000005e+01 1.915919999999999845e+01 1.622104535344913222e-14 2.240164323873339102e-15 -1.000000000000000000e+01 -1.423247735806104475e-14 -2.250985640404078927e-15 -1.000000000000000000e+01 1.625461097502620191e-15 -1.239836365857912968e-15 2.219952424041939149e-15 1.998179999999999978e+01 8.718970000000000331e-01 2.396399999999999864e+00 2.400000000000000000e+01 6.058745797875029659e-15 -5.154962850706515592e-15 2.000000000000000000e+01 -5.853281061458610256e-15 -1.702456838034941880e-14 1.625461097502620191e-15 -1.239836365857912968e-15 2.219952424041939149e-15 2.000000000000000000e+01 3.898797050689592134e-15 1.379899367762559489e-14 2.400000000000000000e+01 5.463553266423359487e-17 -2.591084451173159502e-15 2.000000000000000000e+01 2.204527451166313903e-15 -1.323583486018295052e-14 1.625461097502620191e-15 -1.239836365857912968e-15 2.219952424041939149e-15 1.997479999999999833e+01 -1.025649999999999951e+00 -2.819380000000000219e+00 2.400000000000000000e+01 1.032833287695772855e-15 -7.413138313725128895e-15 2.000000000000000000e+01 4.207441837175906313e-16 -1.976987999295329495e-14 1.625461097502620191e-15 -1.239836365857912968e-15 2.219952424041939149e-15 1.978150000000000119e+01 -3.009479999999999933e+00 -8.305149999999999366e+00 2.400000000000000000e+01 9.224765926573421094e-15 2.659915566775615112e-15 2.000000000000000000e+01 -1.466479484390914788e-15 1.853162617689360384e-15 5.170003871764034642e+00 -1.969798029377437487e+01 -5.533868795955764597e+01 -8.772948893688452543e+00 2.705738798777638721e+01 -1.003220110708119108e+02 2.632404427272639325e+01 5.499106053524371873e+00 -6.445699657672201432e+00 -2.097336752248641645e+01 -1.412632803566488882e+01 -1.494871886396030192e+00 -2.818400000000000105e+01 1.072940000000000005e+01 -1.915919999999999845e+01 6.747545748360012351e-15 8.254684420759041028e-17 1.000000000000000000e+01 -1.417890940975861802e-14 1.160657232838104123e-15 1.000000000000000000e+01 2.217518153323927476e-15 -3.524423303444292914e-15 9.029349347614050356e-16 -1.998179999999999978e+01 8.718970000000000331e-01 -2.396399999999999864e+00 -2.400000000000000000e+01 5.295388393710027571e-15 3.239413689787231239e-15 -2.000000000000000000e+01 4.914576562081323618e-15 4.875554901901198187e-15 2.217518153323927476e-15 -3.524423303444292914e-15 9.029349347614050356e-16 -2.000000000000000000e+01 1.547636507040837078e-15 3.991417540548398087e-15 -2.400000000000000000e+01 -8.915154782510049346e-15 1.272902360403638634e-15 -2.000000000000000000e+01 -2.366122610362391066e-15 1.748200883658665533e-14 2.217518153323927476e-15 -3.524423303444292914e-15 9.029349347614050356e-16 -1.997479999999999833e+01 -1.025649999999999951e+00 2.819380000000000219e+00 -2.400000000000000000e+01 -1.351919037580671935e-15 -6.425853710086171421e-15 -2.000000000000000000e+01 9.110537813567794160e-16 9.759040420137145871e-16 2.217518153323927476e-15 -3.524423303444292914e-15 9.029349347614050356e-16 -1.978150000000000119e+01 -3.009479999999999933e+00 8.305149999999999366e+00 -2.400000000000000000e+01 -3.879932776627778399e-15 9.665806636370423156e-16 -2.000000000000000000e+01 2.695283542706031181e-15 -1.185695723760417795e-15
1.259508982263797407e+03 8.787951711190238768e+01 2.134294026931977442e+02 1.542753269412965977e+01 -2.715476188018645654e-01 -1.164167224593324761e+02 7.917005585445268778e+00 -4.146993688501499520e+01 1.718586042188526974e+01 -2.805502137570040855e+00 4.179998552873097850e+00 -3.847076169687427161e+00 1.761545748142151524e+01 1.994921196500440175e+01 4.037653404958209791e+01 1.800097365152286599e+01 -2.053506439381974147e+01 1.490303364509271233e+01 -1.667600190467190657e+01 3.521691507739890881e+01 2.553289114503239787e+01 -2.967716499386238826e+00 -2.460659187774534828e+01 8.218349225213761322e-01 4.056962414393407990e+00 8.841380768004933444e+00 3.543820442622975797e+00 1.057806221895910115e+00 2.006950286608663259e+00 1.061627793012981602e+00 1.742633293188207144e+00 3.173649827470590878e+00 1.825792338361499345e+00 -1.309932020335763392e+00 -4.325507944647598579e-01 1.552337912544814680e+00 -2.446820812647135135e+00 -2.472472932562003400e+00 5.116810231257731267e+00 -2.400317065038676745e+01 -3.080070000769548066e+00 2.779479925890945324e+01 4.108264211917915354e+00 -1.784890444192112735e+00 5.241431052098221244e+00 9.075991261539077470e+01 -4.422544275062144692e+01 4.988227640341224145e+01 6.555149200356100891e+01 1.707086517448759277e+00 8.896173708805100944e+01 1.830587457377856353e+01 -1.933032181657509341e+01 1.499076908856004486e+01 2.818400000000000105e+01 1.072940000000000005e+01 1.915919999999999845e+01 1.606321851231753076e-14 2.242693593860979029e-15 -1.000000000000000000e+01 -1.410327729250212753e-14 -2.040221540440536579e-15 -1.000000000000000000e+01 1.636088281233043080e-15 -1.215203305070362351e-15 2.301612216492107858e-15 1.998179999999999978e+01 8.718970000000000331e-01 2.396399999999999864e+00 2.400000000000000000e+01 6.158427197884866576e-15 -4.970163809924372290e-15 2.000000000000000000e+01 -5.899540194152543668e-15 -1.709918835996265097e-14 1.636088281233043080e-15 -1.215203305070362351e-15 2.301612216492107858e-15 2.000000000000000000e+01 3.971209596326832655e-15 1.398599282894949541e-14 2.400000000000000000e+01 3.715346670493193198e-17 -2.674311978436822716e-15 2.000000000000000000e+01 2.229127490907600696e-15 -1.319557414516323978e-14 1.636088281233043080e-15 -1.215203305070362351e-15 2.301612216492107858e-15 1.997479999999999833e+01 -1.025649999999999951e+00 -2.819380000000000219e+00 2.400000000000000000e+01 1.049184806925432118e-15 -7.319105364340963483e-15 2.000000000000000000e+01 4.184202961435301543e-16 -1.968534732556611811e-14 1.636088281233043080e-15 -1.215203305070362351e-15 2.301612216492107858e-15 1.978150000000000119e+01 -3.009479999999999933e+00 -8.305149999999999366e+00 2.400000000000000000e+01 9.241548571640791951e-15 2.620187827026941099e-15 2.000000000000000000e+01 -1.544438628552013620e-15 1.715456099627252163e-15 5.065608957639300414e+00 -1.979064583296943525e+01 -5.556572924831436922e+01 -8.924427393582789136e+00 2.694249912497373955e+01 -1.005275129039724504e+02 2.679218547263377559e+01 5.293528990516353616e+00 -7.182453990822137868e+00 -2.096908055508941615e+01 -1.389327701611209598e+01 -1.874104894970206381e+00 -2.818400000000000105e+01 1.072940000000000005e+01 -1.915919999999999845e+01 6.841735220215254791e-15 -5.396882264793743474e-18 1.000000000000000000e+01 -1.423526390656888123e-14 1.177477663011537625e-15 1.000000000000000000e+01 2.199396244871571560e-15 -3.501385026580011078e-15 8.701329427259584220e-16 -1.998179999999999978e+01 8.718970000000000331e-01 -2.396399999999999864e+00 -2.400000000000000000e+01 5.362687475564057673e-15 3.269738046798609682e-15 -2.000000000000000000e+01 4.906390627241173083e-15 4.884963025890278293e-15 2.199396244871571560e-15 -3.501385026580011078e-15 8.701329427259584220e-16 -2.000000000000000000e+01 1.591236450373030871e-15 3.986419861169604449e-15 -2.400000000000000000e+01 -8.875488002772723561e-15 1.341292087096480457e-15 -2.000000000000000000e+01 -2.390789620964650682e-15 1.738676919778501747e-14 2.199396244871571560e-15 -3.501385026580011078e-15 8.701329427259584220e-16 -1.997479999999999833e+01 -1.025649999999999951e+00 2.819380000000000219e+00 -2.400000000000000000e+01 -1.356299552487287163e-15 -6.560373121792594086e-15 -2.000000000000000000e+01 8.967369447054576898e-16 9.217352817761851399e-16 2.199396244871571560e-15 -3.501385026580011078e-15 8.701329427259584220e-16 -1.978150000000000119e+01 -3.009479999999999933e+00 8.305149999999999366e+00 -2.400000000000000000e+01 -3.864312057567441984e-15 1.036828224951581149e-15 -2.000000000000000000e+01 2.646791900831789744e-15 -1.005265338235134266e-15
1.259306059558754214e+03 8.787564893150444334e+01 2.133164072479735012e+02 1.539890096812752596e+01 -2.314960634382493554e-01 -1.168434259218270483e+02 8.317962672396690849e+00 -4.132100533702276834e+01 1.759389837287011815e+01 -2.891730256601459104e+00 4.212583513602944585e+00 -3.763714427782937300e+00 1.773365608501073254e+01 1.986013281803138142e+01 4.040788194995719351e+01 1.819383322661681035e+01 -2.022503557585717004e+01 1.501282142862643276e+01 -1.688120322032919063e+01 3.518793790731351834e+01 2.567842409556392624e+01 -2.965831229909827726e+00 -2.475844190038503001e+01 1.010822213629797961e+00 4.103306413024105481e+00 8.614185801205781701e+00 3.232142114713567160e+00 1.064236083896401341e+00 1.964761235029927278e+00 9.790477888808519769e-01 1.754400724763328423e+00 3.114545206646703868e+00 1.687630931930897749e+00 -1.307320852050800175e+00 -4.425998191744598964e-01 1.595212407733429982e+00 -2.503551502056480693e+00 -2.659256396565356617e+00 5.628345155823216039e+00 -2.391685127493079221e+01 -2.896038604198052369e+00 2.836205191403101722e+01 4.196274270802242690e+00 -1.730900744049489681e+00 5.000157989065830755e+00 9.051678953130739558e+01 -4.509272289789859656e+01 5.021720970664304673e+01 6.477088169836733300e+01 1.997147299647088925e+00 8.921445966733045907e+01 1.818504557397561072e+01 -1.932075612721408930e+01 1.512928321183500557e+01 2.818400000000000105e+01 1.072940000000000005e+01 1.915919999999999845e+01 1.589781671158488846e-14 2.230736150167474715e-15 -1.000000000000000000e+01 -1.398158791602606945e-14 -1.831168665728956363e-15 -1.000000000000000000e+01 1.651436944706989871e-15 -1.190084847823784525e-15 2.375720324300932980e-15 1.998179999999999978e+01 8.718970000000000331e-01 2.396399999999999864e+00 2.400000000000000000e+01 6.251808434967478028e-15 -4.779715768794908732e-15 2.000000000000000000e+01 -5.940722562757687682e-15 -1.718200522396966895e-14 1.651436944706989871e-15 -1.190084847823784525e-15 2.375720324300932980e-15 2.000000000000000000e+01 4.037670850518234913e-15 1.414797914620718610e-14 2.400000000000000000e+01 3.490509936090408267e-17 -2.765276456478042616e-15 2.000000000000000000e+01 2.257905197569957091e-15 -1.316496784417800715e-14 1.651436944706989871e-15 -1.190084847823784525e-15 2.375720324300932980e-15 1.997479999999999833e+01 -1.025649999999999951e+00 -2.819380000000000219e+00 2.400000000000000000e+01 1.060372125751666827e-15 -7.236855705398521291e-15 2.000000000000000000e+01 4.109470948168840673e-16 -1.961035757642715416e-14 1.651436944706989871e-15 -1.190084847823784525e-15 2.375720324300932980e-15 1.978150000000000119e+01 -3.009479999999999933e+00 -8.305149999999999366e+00 2.400000000000000000e+01 9.249056440012414607e-15 2.561467715529412644e-15 2.000000000000000000e+01 -1.632463637062277098e-15 1.575872500700681491e-15 4.964529943572081550e+00 -1.987851699170758124e+01 -5.578316166889352701e+01 -9.071745244629227045e+00 2.682807887405404301e+01 -1.007336939652547727e+02 2.726152986973393411e+01 5.070242792638968155e+00 -7.924072482126978123e+00 -2.097281299513992181e+01 -1.366799941864736567e+01 -2.256415518680702004e+00 -2.818400000000000105e+01 1.072940000000000005e+01 -1.915919999999999845e+01 6.931523898986181562e-15 -9.095052638477100141e-17 1.000000000000000000e+01 -1.429154678675446754e-14 1.182358169111744279e-15 1.000000000000000000e+01 2.171331154610644992e-15 -3.479968963387107430e-15 8.303534148951524474e-16 -1.998179999999999978e+01 8.718970000000000331e-01 -2.396399999999999864e+00 -2.400000000000000000e+01 5.428027722119783229e-15 3.305939602271048413e-15 -2.000000000000000000e+01 4.894740131061535718e-15 4.880971264821902699e-15 2.171331154610644992e-15 -3.479968963387107430e-15 8.303534148951524474e-16 -2.000000000000000000e+01 1.639688386837921388e-15 3.957739375379885050e-15 -2.400000000000000000e+01 -8.834545987470499250e-15 1.399198205656448891e-15 -2.000000000000000000e+01 -2.417201120688520666e-15 1.727246281420961908e-14 2.171331154610644992e-15 -3.479968963387107430e-15 8.303534148951524474e-16 -1.997479999999999833e+01 -1.025649999999999951e+00 2.819380000000000219e+00 -2.400000000000000000e+01 -1.346447953500962323e-15 -6.706748242569289884e-15 -2.000000000000000000e+01 8.890383972902429097e-16 8.617107946548919009e-16 2.171331154610644992e-15 -3.479968963387107430e-15 8.303534148951524474e-16 -1.978150000000000119e+01 -3.009479999999999933e+00 8.305149999999999366e+00 -2.400000000000000000e+01 -3.829307714224306281e-15 1.086531837905899298e-15 -2.000000000000000000e+01 2.602426796022441980e-15 -8.484139384302997171e-16
